<svg xmlns="http://www.w3.org/2000/svg" xmlns:xlink="http://www.w3.org/1999/xlink" width="500" zoomAndPan="magnify" viewBox="0 0 375 374.999991" height="500" preserveAspectRatio="xMidYMid meet" version="1.0"><defs><clipPath id="5452a62e95"><path d="M 0 0 L 371.25 0 L 371.25 371.25 L 0 371.25 Z M 0 0 " clip-rule="nonzero"/></clipPath></defs><path fill="#0995e6" d="M 185.628906 290.882812 C 243.664062 290.882812 290.882812 243.664062 290.882812 185.628906 C 290.882812 127.597656 243.664062 80.378906 185.628906 80.378906 C 127.597656 80.378906 80.378906 127.597656 80.378906 185.628906 C 80.378906 243.664062 127.597656 290.882812 185.628906 290.882812 Z M 185.628906 95.878906 C 235.207031 95.878906 275.382812 136.054688 275.382812 185.628906 C 275.382812 235.207031 235.207031 275.382812 185.628906 275.382812 C 136.054688 275.382812 95.878906 235.207031 95.878906 185.628906 C 95.878906 136.054688 136.054688 95.878906 185.628906 95.878906 Z M 185.628906 95.878906 " fill-opacity="1" fill-rule="nonzero"/><g clip-path="url(#5452a62e95)"><path fill="#0995e6" d="M 84.042969 321.746094 C 83.382812 319.632812 84.542969 317.417969 86.65625 316.753906 C 88.765625 316.070312 90.992188 317.253906 91.644531 319.367188 L 101.609375 351.179688 C 126.449219 363.800781 154.457031 371.007812 184.144531 371.25 L 165.710938 354.300781 C 164.085938 352.804688 163.992188 350.285156 165.476562 348.660156 C 166.953125 347.046875 169.480469 346.945312 171.09375 348.429688 L 195.644531 370.996094 C 225.183594 369.429688 252.875 360.914062 277.171875 347.105469 L 252.714844 341.640625 C 250.554688 341.167969 249.199219 339.03125 249.683594 336.886719 C 250.171875 334.738281 252.308594 333.371094 254.429688 333.867188 L 286.972656 341.144531 C 310.953125 325.480469 331.097656 304.433594 345.667969 279.6875 L 321.734375 287.183594 C 321.339844 287.296875 320.945312 287.367188 320.539062 287.367188 C 318.84375 287.367188 317.265625 286.277344 316.746094 284.582031 C 316.082031 282.472656 317.242188 280.257812 319.355469 279.59375 L 351.167969 269.605469 C 363.789062 244.789062 371.019531 216.78125 371.238281 187.082031 L 354.289062 205.527344 C 353.5 206.363281 352.433594 206.816406 351.351562 206.816406 C 350.390625 206.816406 349.414062 206.457031 348.660156 205.75 C 347.035156 204.253906 346.933594 201.734375 348.417969 200.132812 L 370.996094 175.570312 C 369.417969 146.023438 360.902344 118.328125 347.09375 94.046875 L 341.628906 118.515625 C 341.222656 120.371094 339.566406 121.621094 337.753906 121.621094 C 337.464844 121.621094 337.164062 121.601562 336.875 121.53125 C 334.726562 121.054688 333.382812 118.917969 333.855469 116.773438 L 341.132812 84.253906 C 325.457031 60.261719 304.410156 40.132812 279.675781 25.558594 L 287.171875 49.46875 C 287.832031 51.582031 286.660156 53.820312 284.558594 54.484375 C 284.167969 54.597656 283.773438 54.667969 283.355469 54.667969 C 281.660156 54.667969 280.09375 53.578125 279.558594 51.882812 L 269.582031 20.046875 C 244.824219 7.4375 216.804688 0.230469 187.105469 0 L 205.550781 16.949219 C 207.164062 18.425781 207.269531 20.964844 205.785156 22.566406 C 205.007812 23.425781 203.925781 23.855469 202.847656 23.855469 C 201.886719 23.855469 200.910156 23.515625 200.15625 22.785156 L 175.59375 0.230469 C 146.046875 1.820312 118.363281 10.335938 94.078125 24.144531 L 118.535156 29.609375 C 120.683594 30.082031 122.027344 32.21875 121.554688 34.363281 C 121.148438 36.199219 119.488281 37.472656 117.667969 37.472656 C 117.386719 37.472656 117.085938 37.449219 116.796875 37.382812 L 84.277344 30.09375 C 60.296875 45.757812 40.152344 66.804688 25.582031 91.550781 L 49.503906 84.054688 C 51.617188 83.371094 53.84375 84.554688 54.496094 86.667969 C 55.15625 88.777344 53.984375 90.992188 51.882812 91.65625 L 20.070312 101.609375 C 7.460938 126.414062 0.230469 154.457031 0 184.132812 L 16.949219 165.710938 C 18.433594 164.097656 20.964844 163.992188 22.578125 165.476562 C 24.203125 166.953125 24.304688 169.46875 22.820312 171.09375 L 0.242188 195.632812 C 1.820312 225.183594 10.324219 252.875 24.132812 277.160156 L 29.597656 252.714844 C 30.070312 250.554688 32.21875 249.175781 34.351562 249.671875 C 36.5 250.171875 37.855469 252.308594 37.371094 254.429688 L 30.09375 286.972656 C 45.769531 310.941406 66.804688 331.097656 91.550781 345.667969 Z M 185.628906 67.09375 C 250.984375 67.09375 304.167969 120.253906 304.167969 185.628906 C 304.167969 250.984375 250.984375 304.167969 185.628906 304.167969 C 120.277344 304.167969 67.09375 250.984375 67.09375 185.628906 C 67.09375 120.253906 120.277344 67.09375 185.628906 67.09375 Z M 185.628906 67.09375 " fill-opacity="1" fill-rule="nonzero"/></g></svg>